<svg width="13" height="13" viewBox="0 0 13 13" fill="none" xmlns="http://www.w3.org/2000/svg">
<g clip-path="url(#clip0_1_2266)">
<path d="M6.5 0C8.22391 0 9.87721 0.684819 11.0962 1.90381C12.3152 3.12279 13 4.77609 13 6.5C13 8.22391 12.3152 9.87721 11.0962 11.0962C9.87721 12.3152 8.22391 13 6.5 13C4.77609 13 3.12279 12.3152 1.90381 11.0962C0.684819 9.87721 0 8.22391 0 6.5C0 4.77609 0.684819 3.12279 1.90381 1.90381C3.12279 0.684819 4.77609 0 6.5 0V0ZM6.5 1C5.77773 1 5.06253 1.14226 4.39524 1.41866C3.72795 1.69506 3.12163 2.10019 2.61091 2.61091C2.10019 3.12163 1.69506 3.72795 1.41866 4.39524C1.14226 5.06253 1 5.77773 1 6.5C1 7.22227 1.14226 7.93747 1.41866 8.60476C1.69506 9.27205 2.10019 9.87837 2.61091 10.3891C3.12163 10.8998 3.72795 11.3049 4.39524 11.5813C5.06253 11.8577 5.77773 12 6.5 12C7.95869 12 9.35764 11.4205 10.3891 10.3891C11.4205 9.35764 12 7.95869 12 6.5C12 5.04131 11.4205 3.64236 10.3891 2.61091C9.35764 1.57946 7.95869 1 6.5 1V1Z" fill="#828282"/>
<path d="M7 3H6V7H10V6.024L7 6V3Z" fill="#828282"/>
</g>
<defs>
<clipPath id="clip0_1_2266">
<rect width="13" height="13" fill="white"/>
</clipPath>
</defs>
</svg>
