<svg width="16" height="16" viewBox="0 0 16 16" fill="none" xmlns="http://www.w3.org/2000/svg">
<path d="M15.2213 7.63016C15.104 7.45483 12.3073 3.3335 8 3.3335C3.67067 3.3335 0.893338 7.45683 0.777338 7.63216C0.629338 7.8555 0.629338 8.14616 0.778671 8.3695C0.896004 8.5455 3.69267 12.6668 8 12.6668C12.2853 12.6668 15.102 8.5475 15.22 8.37216C15.3707 8.14816 15.3713 7.85483 15.2213 7.63016ZM8 11.3335C5.1 11.3335 2.91 8.93616 2.16467 7.99883C2.60334 7.44416 3.548 6.38216 4.84734 5.6055C4.73334 5.93883 4.66667 6.29416 4.66667 6.66683C4.66667 8.50483 6.162 10.0002 8 10.0002C9.838 10.0002 11.3333 8.50483 11.3333 6.66683C11.3333 6.29683 11.2673 5.9435 11.1547 5.61216C12.448 6.38816 13.3927 7.4455 13.8333 7.9995C13.082 8.93816 10.8827 11.3335 8 11.3335Z" fill="#C0C0C0"/>
</svg>
