<svg width="17" height="14" viewBox="0 0 17 14" fill="none" xmlns="http://www.w3.org/2000/svg">
<path d="M16.4 3.1H13.6V0.5H13V3.1H10.3V3.9H13V6.5H13.6V3.9H16.4V3.1Z" fill="#737373"/>
<path d="M7.3 8.2C6.9 8 6.2 7.3 6.2 6.9C6.2 6.5 6.3 6.2 7 5.7C7.7 5.2 8.2 4.5 8.2 3.6C8.2 2.5 7.7 1.5 6.9 1.2H8.2L9.1 0.5H4.9C3 0.5 1.3 1.9 1.3 3.6C1.3 5.3 2.6 6.6 4.5 6.6H4.9C4.7 6.8 4.7 7 4.7 7.3C4.7 7.8 5 8.1 5.3 8.5H4.6C2.3 8.5 0.5 10 0.5 11.5C0.5 13 2.5 14 4.8 14C7.4 14 8.9 12.5 8.9 11C8.8 9.7 8.4 9 7.3 8.2ZM5.1 6.1C4 6.1 3 4.9 2.8 3.5C2.6 2.1 3.3 1 4.4 1C5.5 1 6.5 2.2 6.7 3.6C6.9 5 6.2 6.2 5.1 6.1ZM4.7 13.3C3.1 13.3 1.9 12.3 1.9 11.1C1.9 9.9 3.3 8.9 4.9 8.9C5.3 8.9 5.6 9 5.9 9.1C6.8 9.7 7.4 10 7.6 10.7C7.6 10.8 7.7 11 7.7 11.1C7.7 12.3 6.9 13.3 4.7 13.3Z" fill="#737373"/>
</svg>
