<svg width="18" height="17" viewBox="0 0 18 17" fill="none" xmlns="http://www.w3.org/2000/svg">
<path d="M4.29979 16.5V5.70483H0.711696V16.5H4.29979ZM2.50621 4.23004C3.75744 4.23004 4.53627 3.4011 4.53627 2.3652C4.51296 1.30594 3.75748 0.5 2.52995 0.5C1.30261 0.5 0.5 1.30595 0.5 2.3652C0.5 3.40115 1.27864 4.23004 2.48278 4.23004H2.50609H2.50621ZM6.28579 16.5H9.87388V10.4714C9.87388 10.1488 9.89719 9.8265 9.99194 9.59586C10.2513 8.95124 10.8417 8.28359 11.8329 8.28359C13.1313 8.28359 13.6507 9.27354 13.6507 10.7247V16.4999H17.2386V10.3101C17.2386 6.99422 15.4684 5.45139 13.1077 5.45139C11.172 5.45139 10.3222 6.53334 9.85001 7.27025H9.87396V5.7046H6.28587C6.33295 6.71756 6.28587 16.4998 6.28587 16.4998L6.28579 16.5Z" fill="#737373"/>
</svg>
