<svg width="17" height="13" viewBox="0 0 17 13" fill="none" xmlns="http://www.w3.org/2000/svg">
<path d="M16.25 1.88462C15.6594 2.16154 15.0688 2.25385 14.3797 2.34615C15.0688 1.97692 15.5609 1.42308 15.7578 0.684615C15.1672 1.05385 14.4781 1.23846 13.6906 1.42308C13.1 0.869231 12.2141 0.5 11.3281 0.5C9.65469 0.5 8.17813 1.88462 8.17813 3.54615C8.17813 3.82308 8.17812 4.00769 8.27656 4.19231C5.61875 4.1 3.15781 2.9 1.58281 1.05385C1.2875 1.51538 1.18906 1.97692 1.18906 2.62308C1.18906 3.63846 1.77969 4.56154 2.66563 5.11538C2.17344 5.11538 1.68125 4.93077 1.18906 4.74615C1.18906 6.22308 2.27187 7.42308 3.74844 7.7C3.45312 7.79231 3.15781 7.79231 2.8625 7.79231C2.66563 7.79231 2.46875 7.79231 2.27187 7.7C2.66562 8.9 3.84688 9.82308 5.32344 9.82308C4.24063 10.6538 2.8625 11.1154 1.2875 11.1154H0.5C1.97656 11.9462 3.65 12.5 5.42188 12.5C11.3281 12.5 14.5766 7.88462 14.5766 3.91538V3.54615C15.2656 3.08462 15.8562 2.53077 16.25 1.88462Z" fill="#737373"/>
</svg>
